<svg width="36" height="36" viewBox="0 0 36 36" fill="none" xmlns="http://www.w3.org/2000/svg">
<rect width="36" height="36" rx="18" fill="#651CFF" fill-opacity="0.1"/>
<rect x="0.5" y="0.5" width="35" height="35" rx="17.5" stroke="#651CFF" stroke-opacity="0.1"/>
<path d="M9.875 23.625C14.3213 23.6214 18.7483 24.2102 23.0392 25.3758C23.645 25.5408 24.25 25.0908 24.25 24.4625V23.625M11.125 11.75V12.375C11.125 12.5408 11.0592 12.6997 10.9419 12.8169C10.8247 12.9342 10.6658 13 10.5 13H9.875M9.875 13V12.6875C9.875 12.17 10.295 11.75 10.8125 11.75H24.875M9.875 13V20.5M24.875 11.75V12.375C24.875 12.72 25.155 13 25.5 13H26.125M24.875 11.75H25.1875C25.705 11.75 26.125 12.17 26.125 12.6875V20.8125C26.125 21.33 25.705 21.75 25.1875 21.75H24.875M9.875 20.5V20.8125C9.875 21.0611 9.97377 21.2996 10.1496 21.4754C10.3254 21.6512 10.5639 21.75 10.8125 21.75H11.125M9.875 20.5H10.5C10.6658 20.5 10.8247 20.5658 10.9419 20.6831C11.0592 20.8003 11.125 20.9592 11.125 21.125V21.75M24.875 21.75V21.125C24.875 20.9592 24.9408 20.8003 25.0581 20.6831C25.1753 20.5658 25.3342 20.5 25.5 20.5H26.125M24.875 21.75H11.125M20.5 16.75C20.5 17.413 20.2366 18.0489 19.7678 18.5178C19.2989 18.9866 18.663 19.25 18 19.25C17.337 19.25 16.7011 18.9866 16.2322 18.5178C15.7634 18.0489 15.5 17.413 15.5 16.75C15.5 16.087 15.7634 15.4511 16.2322 14.9822C16.7011 14.5134 17.337 14.25 18 14.25C18.663 14.25 19.2989 14.5134 19.7678 14.9822C20.2366 15.4511 20.5 16.087 20.5 16.75ZM23 16.75H23.0067V16.7567H23V16.75ZM13 16.75H13.0067V16.7567H13V16.75Z" stroke="#7D4FDF" stroke-width="1.5" stroke-linecap="round" stroke-linejoin="round"/>
</svg>
