<svg width="26" height="25" viewBox="0 0 26 25" fill="none" xmlns="http://www.w3.org/2000/svg">
<path d="M9.41347 2.86459H5.37731C4.84349 2.86459 4.33156 3.07665 3.95409 3.4541C3.57663 3.83157 3.36458 4.34351 3.36458 4.87732V8.91349C3.36457 9.44829 3.57629 9.96134 3.95344 10.3405C4.3306 10.7197 4.84252 10.9341 5.37731 10.9369H9.41347C9.95012 10.9369 10.4648 10.7238 10.8443 10.3443C11.2237 9.96481 11.4369 9.45013 11.4369 8.91349V4.87732C11.4341 4.34253 11.2197 3.83061 10.8405 3.45346C10.4613 3.0763 9.94828 2.86458 9.41347 2.86459Z" stroke="#7D4FDF" stroke-width="1.5" stroke-linecap="round" stroke-linejoin="round"/>
<path d="M20.6227 2.86459H16.5865C16.0517 2.86458 15.5386 3.0763 15.1595 3.45346C14.7803 3.83061 14.5659 4.34253 14.563 4.87732V8.91349C14.563 9.45013 14.7762 9.96481 15.1557 10.3443C15.5352 10.7238 16.0499 10.9369 16.5865 10.9369H20.6227C21.1575 10.9341 21.6694 10.7197 22.0466 10.3405C22.4237 9.96134 22.6354 9.44829 22.6354 8.91349V4.87732C22.6354 4.34351 22.4233 3.83157 22.0459 3.4541C21.6684 3.07665 21.1565 2.86459 20.6227 2.86459Z" stroke="#7D4FDF" stroke-width="1.5" stroke-linecap="round" stroke-linejoin="round"/>
<path d="M20.6227 14.063H16.5865C16.0517 14.063 15.5386 14.2748 15.1595 14.652C14.7803 15.0291 14.5659 15.541 14.563 16.0758V20.112C14.563 20.6486 14.7762 21.1633 15.1557 21.5427C15.5352 21.9222 16.0499 22.1354 16.5865 22.1354H20.6227C21.1575 22.1326 21.6694 21.9181 22.0466 21.539C22.4237 21.1598 22.6354 20.6468 22.6354 20.112V16.0758C22.6354 15.542 22.4233 15.03 22.0459 14.6526C21.6684 14.2751 21.1565 14.063 20.6227 14.063Z" stroke="#7D4FDF" stroke-width="1.5" stroke-linecap="round" stroke-linejoin="round"/>
<path d="M9.41347 14.063H5.37731C4.84252 14.0659 4.3306 14.2803 3.95344 14.6595C3.57629 15.0386 3.36457 15.5517 3.36458 16.0865V20.1227C3.36458 20.6565 3.57663 21.1684 3.95409 21.5459C4.33156 21.9233 4.84349 22.1354 5.37731 22.1354H9.41347C9.94828 22.1354 10.4613 21.9237 10.8405 21.5466C11.2197 21.1694 11.4341 20.6575 11.4369 20.1227V16.0865C11.4369 15.5499 11.2237 15.0352 10.8443 14.6557C10.4648 14.2762 9.95012 14.063 9.41347 14.063Z" stroke="#7D4FDF" stroke-width="1.5" stroke-linecap="round" stroke-linejoin="round"/>
</svg>
