<svg width="51" height="50" viewBox="0 0 51 50" fill="none" xmlns="http://www.w3.org/2000/svg">
<rect x="0.333344" width="50" height="50" rx="8" fill="#651CFF" fill-opacity="0.1"/>
<rect x="0.833344" y="0.5" width="49" height="49" rx="7.5" stroke="#651CFF" stroke-opacity="0.1"/>
<path d="M35.6458 17.9688C35.6458 20.8163 31.0283 23.125 25.3333 23.125C19.6383 23.125 15.0208 20.8163 15.0208 17.9688M35.6458 17.9688C35.6458 15.1212 31.0283 12.8125 25.3333 12.8125C19.6383 12.8125 15.0208 15.1212 15.0208 17.9688M35.6458 17.9688V32.0312C35.6458 34.8788 31.0283 37.1875 25.3333 37.1875C19.6383 37.1875 15.0208 34.8788 15.0208 32.0312V17.9688M35.6458 17.9688V22.6562M15.0208 17.9688V22.6562M35.6458 22.6562V27.3438C35.6458 30.1913 31.0283 32.5 25.3333 32.5C19.6383 32.5 15.0208 30.1913 15.0208 27.3438V22.6562M35.6458 22.6562C35.6458 25.5038 31.0283 27.8125 25.3333 27.8125C19.6383 27.8125 15.0208 25.5038 15.0208 22.6562" stroke="#7D4FDF" stroke-width="1.5" stroke-linecap="round" stroke-linejoin="round"/>
</svg>
