<svg width="22" height="22" viewBox="0 0 22 22" fill="none" xmlns="http://www.w3.org/2000/svg">
<path d="M10.9654 16.4873H17.2072C17.4503 16.5008 17.6929 16.452 17.9118 16.3452C18.1306 16.2384 18.3184 16.0773 18.4573 15.8773C18.5962 15.6774 18.6817 15.4452 18.7055 15.2029C18.7293 14.9606 18.6906 14.7163 18.5932 14.4931C18.2641 13.496 16.948 12.2995 16.948 11.1228C16.948 8.51048 16.948 7.82248 15.6617 6.28694C15.2447 5.79272 14.7283 5.39182 14.1461 5.11036L13.4282 4.76138C13.3074 4.68937 13.2031 4.59262 13.1224 4.47748C13.0417 4.36235 12.9861 4.23142 12.9596 4.09331C12.888 3.628 12.6421 3.20733 12.2717 2.91664C11.9014 2.62594 11.4344 2.48695 10.9654 2.52786C10.5045 2.50001 10.05 2.645 9.69035 2.93451C9.33084 3.22402 9.0921 3.63719 9.02103 4.09331C8.98882 4.23585 8.92567 4.36959 8.8361 4.48504C8.74649 4.60047 8.63261 4.69482 8.50252 4.76138L7.7846 5.11036C7.20243 5.39182 6.68603 5.79272 6.26901 6.28694C4.98274 7.82248 4.98274 8.51048 4.98274 11.1228C4.98274 12.2995 3.72639 13.3763 3.39736 14.4333C3.19793 15.0714 3.08825 16.4873 4.75341 16.4873H10.9654Z" stroke="#222222" stroke-width="1.5" stroke-linecap="round" stroke-linejoin="round"/>
<path d="M13.9566 16.4872C13.9647 16.8823 13.893 17.275 13.7455 17.6415C13.5981 18.0082 13.3781 18.3412 13.0987 18.6206C12.8192 18.9 12.4862 19.12 12.1196 19.2675C11.753 19.415 11.3604 19.4868 10.9654 19.4785C10.5703 19.4868 10.1777 19.415 9.81099 19.2675C9.44442 19.12 9.11138 18.9 8.832 18.6206C8.55259 18.3412 8.33256 18.0082 8.18512 17.6415C8.03767 17.275 7.96587 16.8823 7.97401 16.4872" stroke="#222222" stroke-width="1.5" stroke-linecap="round" stroke-linejoin="round"/>
</svg>
