<svg width="26" height="25" viewBox="0 0 26 25" fill="none" xmlns="http://www.w3.org/2000/svg">
<path d="M15.2774 2.86761V6.61321C15.2774 7.12126 15.4799 7.6085 15.8405 7.96774C16.2011 8.32699 16.6902 8.52881 17.2002 8.52881H21.4971" stroke="#7D4FDF" stroke-width="1.5" stroke-linecap="round" stroke-linejoin="round"/>
<path d="M21.5937 8.92476V17.85C21.5729 18.4333 21.437 19.0069 21.1935 19.5378C20.95 20.0688 20.604 20.5467 20.1749 20.9443C19.7459 21.3418 19.2424 21.6513 18.6933 21.8548C18.1442 22.0583 17.5601 22.1521 16.9746 22.1306H9.06836C8.4793 22.1579 7.89068 22.0685 7.33656 21.8675C6.78245 21.6666 6.27386 21.358 5.84025 20.9599C5.40664 20.5618 5.05663 20.0819 4.81047 19.5481C4.56432 19.0143 4.42693 18.4371 4.40625 17.85V7.14827C4.42703 6.56493 4.56304 5.99139 4.8065 5.46044C5.04995 4.9295 5.39608 4.45158 5.82508 4.05401C6.25409 3.65644 6.75756 3.34702 7.3067 3.14344C7.85583 2.93987 8.43986 2.84614 9.0254 2.8676H14.9766C15.8858 2.86455 16.7633 3.20049 17.4366 3.80935L20.5196 6.64529C20.8491 6.92894 21.115 7.27847 21.3001 7.67118C21.4851 8.06389 21.5852 8.491 21.5937 8.92476Z" stroke="#7D4FDF" stroke-width="1.5" stroke-linecap="round" stroke-linejoin="round"/>
<path d="M8.46572 7.9657H11.8665" stroke="#7D4FDF" stroke-width="1.5" stroke-linecap="round" stroke-linejoin="round"/>
<path d="M8.46572 12.5H17.5344" stroke="#7D4FDF" stroke-width="1.5" stroke-linecap="round" stroke-linejoin="round"/>
<path d="M8.46572 17.0343H17.5344" stroke="#7D4FDF" stroke-width="1.5" stroke-linecap="round" stroke-linejoin="round"/>
</svg>
