<svg width="36" height="36" viewBox="0 0 36 36" fill="none" xmlns="http://www.w3.org/2000/svg">
<rect width="36" height="36" rx="18" fill="#FF424D" fill-opacity="0.1"/>
<rect x="0.5" y="0.5" width="35" height="35" rx="17.5" stroke="#FF424D" stroke-opacity="0.1"/>
<path d="M9.875 14.875H26.125M9.875 15.5H26.125M12.375 19.875H17.375M12.375 21.75H14.875M11.75 24.25H24.25C24.7473 24.25 25.2242 24.0525 25.5758 23.7008C25.9275 23.3492 26.125 22.8723 26.125 22.375V13.625C26.125 13.1277 25.9275 12.6508 25.5758 12.2992C25.2242 11.9475 24.7473 11.75 24.25 11.75H11.75C11.2527 11.75 10.7758 11.9475 10.4242 12.2992C10.0725 12.6508 9.875 13.1277 9.875 13.625V22.375C9.875 22.8723 10.0725 23.3492 10.4242 23.7008C10.7758 24.0525 11.2527 24.25 11.75 24.25Z" stroke="#FF424D" stroke-width="1.5" stroke-linecap="round" stroke-linejoin="round"/>
</svg>
