<svg width="36" height="37" viewBox="0 0 36 37" fill="none" xmlns="http://www.w3.org/2000/svg">
<rect y="0.5" width="36" height="36" rx="18" fill="#FF772B" fill-opacity="0.1"/>
<rect x="0.5" y="1" width="35" height="35" rx="17.5" stroke="#FF772B" stroke-opacity="0.1"/>
<path d="M24.875 13.8125C24.875 15.7108 21.7967 17.25 18 17.25C14.2033 17.25 11.125 15.7108 11.125 13.8125M24.875 13.8125C24.875 11.9142 21.7967 10.375 18 10.375C14.2033 10.375 11.125 11.9142 11.125 13.8125M24.875 13.8125V23.1875C24.875 25.0858 21.7967 26.625 18 26.625C14.2033 26.625 11.125 25.0858 11.125 23.1875V13.8125M24.875 13.8125V16.9375M11.125 13.8125V16.9375M24.875 16.9375V20.0625C24.875 21.9608 21.7967 23.5 18 23.5C14.2033 23.5 11.125 21.9608 11.125 20.0625V16.9375M24.875 16.9375C24.875 18.8358 21.7967 20.375 18 20.375C14.2033 20.375 11.125 18.8358 11.125 16.9375" stroke="#FF772B" stroke-width="1.5" stroke-linecap="round" stroke-linejoin="round"/>
</svg>
