<svg width="26" height="25" viewBox="0 0 26 25" fill="none" xmlns="http://www.w3.org/2000/svg">
<path d="M2.84375 8.59375H23.1562M2.84375 9.375H23.1562M5.96875 14.8437H12.2187M5.96875 17.1875H9.09375M5.1875 20.3125H20.8125C21.4341 20.3125 22.0302 20.0656 22.4698 19.626C22.9093 19.1865 23.1562 18.5904 23.1562 17.9687V7.03125C23.1562 6.40965 22.9093 5.81351 22.4698 5.37397C22.0302 4.93443 21.4341 4.6875 20.8125 4.6875H5.1875C4.5659 4.6875 3.96976 4.93443 3.53022 5.37397C3.09068 5.81351 2.84375 6.40965 2.84375 7.03125V17.9687C2.84375 18.5904 3.09068 19.1865 3.53022 19.626C3.96976 20.0656 4.5659 20.3125 5.1875 20.3125Z" stroke="#7D4FDF" stroke-width="1.5" stroke-linecap="round" stroke-linejoin="round"/>
</svg>
