<svg width="26" height="25" viewBox="0 0 26 25" fill="none" xmlns="http://www.w3.org/2000/svg">
<path d="M15.0274 2.86761V6.61321C15.0274 7.12126 15.2299 7.6085 15.5905 7.96774C15.9511 8.32699 16.4402 8.52881 16.9502 8.52881H21.2471" stroke="#5A5A5A" stroke-width="1.5" stroke-linecap="round" stroke-linejoin="round"/>
<path d="M21.3437 8.92476V17.85C21.3229 18.4333 21.187 19.0069 20.9435 19.5378C20.7 20.0688 20.354 20.5467 19.9249 20.9443C19.4959 21.3418 18.9924 21.6513 18.4433 21.8548C17.8942 22.0583 17.3101 22.1521 16.7246 22.1306H8.81836C8.2293 22.1579 7.64068 22.0685 7.08656 21.8675C6.53245 21.6666 6.02386 21.358 5.59025 20.9599C5.15664 20.5618 4.80663 20.0819 4.56047 19.5481C4.31432 19.0143 4.17693 18.4371 4.15625 17.85V7.14827C4.17703 6.56493 4.31304 5.99139 4.5565 5.46044C4.79995 4.9295 5.14608 4.45158 5.57508 4.05401C6.00409 3.65644 6.50756 3.34702 7.0567 3.14344C7.60583 2.93987 8.18986 2.84614 8.7754 2.8676H14.7266C15.6358 2.86455 16.5133 3.20049 17.1866 3.80935L20.2696 6.64529C20.5991 6.92894 20.865 7.27847 21.0501 7.67118C21.2351 8.06389 21.3352 8.491 21.3437 8.92476Z" stroke="#5A5A5A" stroke-width="1.5" stroke-linecap="round" stroke-linejoin="round"/>
<path d="M8.21572 7.9657H11.6165" stroke="#5A5A5A" stroke-width="1.5" stroke-linecap="round" stroke-linejoin="round"/>
<path d="M8.21572 12.5H17.2844" stroke="#5A5A5A" stroke-width="1.5" stroke-linecap="round" stroke-linejoin="round"/>
<path d="M8.21572 17.0343H17.2844" stroke="#5A5A5A" stroke-width="1.5" stroke-linecap="round" stroke-linejoin="round"/>
</svg>
