<svg width="36" height="36" viewBox="0 0 36 36" fill="none" xmlns="http://www.w3.org/2000/svg">
<rect width="36" height="36" rx="18" fill="#2E68FF" fill-opacity="0.1"/>
<rect x="0.5" y="0.5" width="35" height="35" rx="17.5" stroke="#2E68FF" stroke-opacity="0.1"/>
<path d="M21.3334 13.2083V21.1333C21.2338 21.2572 21.1524 21.3947 21.0917 21.5417H14.9084C14.7459 21.1707 14.4789 20.8552 14.14 20.6337C13.8011 20.4121 13.4049 20.2941 13 20.2941C12.5951 20.2941 12.199 20.4121 11.8601 20.6337C11.5211 20.8552 11.2541 21.1707 11.0917 21.5417H10.5C10.279 21.5417 10.067 21.4538 9.91076 21.2976C9.75449 21.1413 9.66669 20.9293 9.66669 20.7083V13.2083C9.66669 12.7663 9.84228 12.3424 10.1548 12.0298C10.4674 11.7172 10.8913 11.5417 11.3334 11.5417H19.6667C20.1087 11.5417 20.5326 11.7172 20.8452 12.0298C21.1578 12.3424 21.3334 12.7663 21.3334 13.2083Z" stroke="#2E68FF" stroke-width="1.5" stroke-linecap="round" stroke-linejoin="round"/>
<path d="M26.3333 19.1333V21.5417H24.9083C24.7636 21.2067 24.533 20.9157 24.2399 20.6982C23.9468 20.4807 23.6016 20.3445 23.239 20.3031C22.8764 20.2617 22.5092 20.3166 22.1746 20.4623C21.8401 20.6082 21.5499 20.8396 21.3333 21.1333V14.0417H23.3583C23.5029 14.0417 23.6451 14.0793 23.7707 14.1509C23.8964 14.2225 24.0012 14.3256 24.075 14.45L24.8333 15.7083L25.8583 17.4167C26.1694 17.9352 26.3336 18.5286 26.3333 19.1333Z" stroke="#2E68FF" stroke-width="1.5" stroke-linecap="round" stroke-linejoin="round"/>
<path d="M15.0833 22.375C15.0833 22.9275 14.8638 23.4574 14.4731 23.8482C14.0824 24.2388 13.5525 24.4583 13 24.4583C12.4475 24.4583 11.9176 24.2388 11.5269 23.8482C11.1362 23.4574 10.9167 22.9275 10.9167 22.375C10.915 22.0879 10.9747 21.8038 11.0917 21.5417C11.2541 21.1708 11.5211 20.8553 11.86 20.6337C12.1989 20.4121 12.5951 20.2941 13 20.2941C13.4049 20.2941 13.801 20.4121 14.14 20.6337C14.4789 20.8553 14.7459 21.1708 14.9083 21.5417C15.0253 21.8038 15.085 22.0879 15.0833 22.375Z" stroke="#2E68FF" stroke-width="1.5" stroke-linecap="round" stroke-linejoin="round"/>
<path d="M25.0833 22.375C25.0833 22.9275 24.8638 23.4574 24.4732 23.8482C24.0824 24.2388 23.5525 24.4583 23 24.4583C22.4475 24.4583 21.9176 24.2388 21.5268 23.8482C21.1362 23.4574 20.9167 22.9275 20.9167 22.375C20.915 22.0879 20.9747 21.8038 21.0917 21.5417C21.1523 21.3947 21.2337 21.2572 21.3333 21.1333C21.5499 20.8396 21.8401 20.6082 22.1747 20.4623C22.5092 20.3166 22.8764 20.2617 23.239 20.3031C23.6016 20.3445 23.9468 20.4807 24.2399 20.6982C24.533 20.9157 24.7636 21.2067 24.9083 21.5417C25.0253 21.8038 25.085 22.0879 25.0833 22.375Z" stroke="#2E68FF" stroke-width="1.5" stroke-linecap="round" stroke-linejoin="round"/>
<path d="M17.1667 17.375H13" stroke="#2E68FF" stroke-width="1.5" stroke-linecap="round" stroke-linejoin="round"/>
<path d="M17.1667 14.875H13" stroke="#2E68FF" stroke-width="1.5" stroke-linecap="round" stroke-linejoin="round"/>
</svg>
