<svg width="26" height="25" viewBox="0 0 26 25" fill="none" xmlns="http://www.w3.org/2000/svg">
<path d="M2.59375 8.59375H22.9062M2.59375 9.375H22.9062M5.71875 14.8437H11.9687M5.71875 17.1875H8.84375M4.9375 20.3125H20.5625C21.1841 20.3125 21.7802 20.0656 22.2198 19.626C22.6593 19.1865 22.9062 18.5904 22.9062 17.9687V7.03125C22.9062 6.40965 22.6593 5.81351 22.2198 5.37397C21.7802 4.93443 21.1841 4.6875 20.5625 4.6875H4.9375C4.3159 4.6875 3.71976 4.93443 3.28022 5.37397C2.84068 5.81351 2.59375 6.40965 2.59375 7.03125V17.9687C2.59375 18.5904 2.84068 19.1865 3.28022 19.626C3.71976 20.0656 4.3159 20.3125 4.9375 20.3125Z" stroke="#5A5A5A" stroke-width="1.5" stroke-linecap="round" stroke-linejoin="round"/>
</svg>
