<svg width="36" height="36" viewBox="0 0 36 36" fill="none" xmlns="http://www.w3.org/2000/svg">
<rect width="36" height="36" rx="18" fill="#1DBB82" fill-opacity="0.1"/>
<rect x="0.5" y="0.5" width="35" height="35" rx="17.5" stroke="#1DBB82" stroke-opacity="0.1"/>
<path d="M9.875 10.5H11.03C11.455 10.5 11.8258 10.7858 11.9358 11.1958L12.255 12.3933M12.255 12.3933C16.8972 12.2632 21.5349 12.7793 26.035 13.9267C25.3483 15.9717 24.5325 17.9583 23.5983 19.875H14.25M12.255 12.3933L14.25 19.875M14.25 19.875C13.587 19.875 12.9511 20.1384 12.4822 20.6072C12.0134 21.0761 11.75 21.712 11.75 22.375H24.875M13 24.875C13 25.0408 12.9342 25.1997 12.8169 25.3169C12.6997 25.4342 12.5408 25.5 12.375 25.5C12.2092 25.5 12.0503 25.4342 11.9331 25.3169C11.8158 25.1997 11.75 25.0408 11.75 24.875C11.75 24.7092 11.8158 24.5503 11.9331 24.4331C12.0503 24.3158 12.2092 24.25 12.375 24.25C12.5408 24.25 12.6997 24.3158 12.8169 24.4331C12.9342 24.5503 13 24.7092 13 24.875ZM23.625 24.875C23.625 25.0408 23.5592 25.1997 23.4419 25.3169C23.3247 25.4342 23.1658 25.5 23 25.5C22.8342 25.5 22.6753 25.4342 22.5581 25.3169C22.4408 25.1997 22.375 25.0408 22.375 24.875C22.375 24.7092 22.4408 24.5503 22.5581 24.4331C22.6753 24.3158 22.8342 24.25 23 24.25C23.1658 24.25 23.3247 24.3158 23.4419 24.4331C23.5592 24.5503 23.625 24.7092 23.625 24.875Z" stroke="#1DBB82" stroke-width="1.5" stroke-linecap="round" stroke-linejoin="round"/>
</svg>
