<svg width="51" height="50" viewBox="0 0 51 50" fill="none" xmlns="http://www.w3.org/2000/svg">
<rect x="0.666626" width="50" height="50" rx="8" fill="#651CFF" fill-opacity="0.1"/>
<rect x="1.16663" y="0.5" width="49" height="49" rx="7.5" stroke="#651CFF" stroke-opacity="0.1"/>
<path d="M13.4791 33.4375C20.1486 33.4321 26.7891 34.3153 33.2254 36.0637C34.1341 36.3112 35.0416 35.6362 35.0416 34.6937V33.4375M15.3541 15.625V16.5625C15.3541 16.8111 15.2554 17.0496 15.0795 17.2254C14.9037 17.4012 14.6653 17.5 14.4166 17.5H13.4791M13.4791 17.5V17.0312C13.4791 16.255 14.1091 15.625 14.8854 15.625H35.9791M13.4791 17.5V28.75M35.9791 15.625V16.5625C35.9791 17.08 36.3991 17.5 36.9166 17.5H37.8541M35.9791 15.625H36.4479C37.2241 15.625 37.8541 16.255 37.8541 17.0312V29.2188C37.8541 29.995 37.2241 30.625 36.4479 30.625H35.9791M13.4791 28.75V29.2188C13.4791 29.5917 13.6273 29.9494 13.891 30.2131C14.1547 30.4768 14.5124 30.625 14.8854 30.625H15.3541M13.4791 28.75H14.4166C14.6653 28.75 14.9037 28.8488 15.0795 29.0246C15.2554 29.2004 15.3541 29.4389 15.3541 29.6875V30.625M35.9791 30.625V29.6875C35.9791 29.4389 36.0779 29.2004 36.2537 29.0246C36.4295 28.8488 36.668 28.75 36.9166 28.75H37.8541M35.9791 30.625H15.3541M29.4166 23.125C29.4166 24.1196 29.0215 25.0734 28.3183 25.7767C27.615 26.4799 26.6612 26.875 25.6666 26.875C24.6721 26.875 23.7182 26.4799 23.015 25.7767C22.3117 25.0734 21.9166 24.1196 21.9166 23.125C21.9166 22.1304 22.3117 21.1766 23.015 20.4733C23.7182 19.7701 24.6721 19.375 25.6666 19.375C26.6612 19.375 27.615 19.7701 28.3183 20.4733C29.0215 21.1766 29.4166 22.1304 29.4166 23.125ZM33.1666 23.125H33.1766V23.135H33.1666V23.125ZM18.1666 23.125H18.1766V23.135H18.1666V23.125Z" stroke="#7D4FDF" stroke-width="1.5" stroke-linecap="round" stroke-linejoin="round"/>
</svg>
